<svg xmlns="http://www.w3.org/2000/svg" width="274" height="274" viewBox="0 0 274 274">
  <g id="Layer_x0020_1" transform="translate(0 -0.333)">
    <g id="_2272613890960">
      <path id="Path_1" data-name="Path 1" d="M219.251,116.13c2.73,8.871,8.189,15.013,11.6,26.614,21.837,79.161-75.066,135.119-135.119,79.843-27.3-25.25-33.439-77.8-6.142-109.87,25.932-30.709,67.56-38.9,109.87-15.013l15.7-15.7c-12.966-15.7-50.5-24.567-78.478-20.473C83.449,69.043,45.916,116.13,47.963,169.359c1.365,28.662,15.7,53.911,30.027,68.242,54.594,55.959,165.828,31.391,178.112-60.053,3.412-25.932-6.142-61.418-20.473-75.749C229.487,103.847,223.345,111.354,219.251,116.13Z" transform="translate(-15.207 -19.227)" fill="#05bdbd" fill-rule="evenodd"/>
      <path id="Path_2" data-name="Path 2" d="M205.146,128.742c-27.3-23.885-70.289-5.459-84.62,14.331-22.52,28.662-15.7,64.148,6.142,85.3,25.25,23.2,58.006,23.2,85.985,2.73,17.061-12.966,26.614-39.58,21.155-63.465l-6.824-16.378c-2.047-3.412-1.365-1.365-3.412-3.412l-10.236,10.919c8.189,29.344,6.142,45.722-15.013,62.1-19.108,13.648-45.722,9.554-60.736-4.777-35.486-34.8.682-99.633,55.959-75.749Z" transform="translate(-33.858 -37.297)" fill="#05bdbd" fill-rule="evenodd"/>
      <path id="Path_3" data-name="Path 3" d="M287.729,74.276c10.919-13.648,27.979-25.25,30.709-31.391-2.73-1.365-4.777-2.047-8.189-3.412C293.188,34.013,304.79,27.189,295.236,19c-6.824,9.554-22.52,23.885-32.074,30.027l3.412,17.061L205.156,127.5c-14.331-2.73-25.25-8.871-37.533,4.777-22.52,25.25,12.284,61.418,37.533,40.263,14.331-12.966,10.236-20.473,6.142-38.216l63.465-62.783Z" transform="translate(-50.929 -6.034)" fill="#eb9f06" fill-rule="evenodd"/>
      <rect id="Rectangle_1" data-name="Rectangle 1" width="274" height="274" transform="translate(0 0.333)" fill="none"/>
    </g>
  </g>
</svg>
