<svg xmlns="http://www.w3.org/2000/svg" width="274" height="274" viewBox="0 0 274 274">
  <g id="Group_4" data-name="Group 4" transform="translate(-638 -255)">
    <rect id="Rectangle_5" data-name="Rectangle 5" width="274" height="274" transform="translate(638 255)" fill="none"/>
    <g id="Group_3" data-name="Group 3" transform="translate(-324 -49)">
      <path id="Path_4" data-name="Path 4" d="M243.234,120.761,221.842,116l-7.725,16.265H196.489l-3.763-15.67c-10.5.2-15.648.992-24.561,5.951L169.75,140.2l-15.45,7.339-12.478-9.323c-6.932,3.174-12.28,8.331-16.242,16.662,4.358,7.339,5.348,6.347,10.1,12.695l-8.913,15.67-16.836-2.579c-3.763,7.339-6.536,14.679-4.952,24.4l14.657,4.364v18.447L103,235.015l6.338,22.613,17.826-2.777,8.121,14.877c-6.338,8.926-6.338,4.364-9.705,15.075,4.754,7.736,7.923,11.9,16.242,15.075,7.725-3.57,5.546-3.967,12.875-10.116l15.648,7.339-1.386,20.233,22.58,4.364,5.744-16.067,18.024.2,6.338,16.662,22.778-5.951-2.179-18.646,16.638-7.538,13.469,10.116L286.81,284.8c-2.971-9.72-4.952-7.339-9.705-15.075l7.725-14.877,19.015,1.785,5.15-22.613-16.044-6.744.99-17.456c9.309-4.364,8.517-1.19,15.053-7.538-2.575-8.728-9.309-14.282-17.43-18.646-38.03,24.795-17.232,51.375-43.576,77.558-55.262,54.945-141.423-28.564-81.209-86.286,36.643-35.308,74.871-1.984,85.17,3.372L267.4,159.837c-5.942-9.323-13.469-13.885-25.353-19.836Z" transform="translate(888 222)" fill="#05bdbd" fill-rule="evenodd"/>
      <path id="Path_5" data-name="Path 5" d="M510.292,225.851c4.366,12.267,2.495,5.2,9.148,13.722-4.366,6.237-45.116,51.353-51.769,54.056-6.029-13.1-4.574-24.949-13.1-33.473-8.316,1.455-63.62,51.353-61.749,64.66,10.811,3.327,10.188,1.039,16.009-4.99L450,280.739c2.287,11.227,5.2,27.028,12.267,34.513,17.672-2.287,42.829-46.156,68.194-65.075l13.722,9.98L554.784,214Z" transform="translate(652.684 144.764)" fill="#eb9f06" fill-rule="evenodd"/>
    </g>
  </g>
</svg>
