<svg id="Layer_x0020_1" xmlns="http://www.w3.org/2000/svg" width="302" height="302" viewBox="0 0 302 302">
  <g id="_2272617098208">
    <g id="Group_2" data-name="Group 2">
      <path id="Path_11" data-name="Path 11" d="M74,127V87c16,0,40-6,54-13,3-2,6-3,9-5,9-6,10-8,16-12,5,5,10,8,16,12,16,10,43,18,63,18,0,50,2,90-27,127-12,15-32,26-49,34-4,1-3,1-9-1-21-10-37-19-51-39a64.667,64.667,0,0,1-9-16C78,175,74,148,74,127ZM47,116c0,24,1,44,6,63a144.043,144.043,0,0,0,21,45c1,2,2,3,3,5l12,13c4,4,14,11,19,14,9,6,36,21,45,21s36-14,45-20a147.163,147.163,0,0,0,34-32,87.941,87.941,0,0,1,6-10l6-11a157.736,157.736,0,0,0,11-37c4-23,4-33,4-56,0-8,1-17,0-24s1-19-2-23c-3-5-12-3-20-3a120.1,120.1,0,0,1-64-22L160,28c-8-9-10-4-18,3-4,3-4,4-10,8l-7,5C109,54,86,61,66,61c-9,0-17-2-19,6-1,6,1,17,0,24C46,97,47,109,47,116Z" fill="#05bdbd" fill-rule="evenodd"/>
      <path id="Path_12" data-name="Path 12" d="M145,149c-15-11-15-18-26-7-8,7-7,9,0,17l22,25c7,5,12-4,15-7l5-6c1-1,2-1,3-2l19-22c3-3,9-8,9-12s-2-5-4-7c-1-2-3-4-5-6-6-4-11,3-14,5Z" fill="#eb9f06" fill-rule="evenodd"/>
    </g>
    <rect id="Rectangle_4" data-name="Rectangle 4" width="302" height="302" fill="none"/>
  </g>
</svg>
