<?xml version="1.0" encoding="UTF-8"?>
<!DOCTYPE svg PUBLIC "-//W3C//DTD SVG 1.1//EN" "http://www.w3.org/Graphics/SVG/1.1/DTD/svg11.dtd">
<!-- Creator: CorelDRAW X7 -->
<svg xmlns="http://www.w3.org/2000/svg" xml:space="preserve" width="3.85289in" height="1.01615in" version="1.1" style="shape-rendering:geometricPrecision; text-rendering:geometricPrecision; image-rendering:optimizeQuality; fill-rule:evenodd; clip-rule:evenodd"
viewBox="0 0 3280 865"
 xmlns:xlink="http://www.w3.org/1999/xlink">
 <defs>
  <style type="text/css">
   <![CDATA[
    .fil4 {fill:#05BDBD}
    .fil3 {fill:#B3B3B3}
    .fil2 {fill:#EB9F06}
    .fil5 {fill:black;fill-rule:nonzero}
    .fil0 {fill:#666666;fill-rule:nonzero}
    .fil1 {fill:#EB9F06;fill-rule:nonzero}
   ]]>
  </style>
 </defs>
 <g id="Layer_x0020_1">
  <metadata id="CorelCorpID_0Corel-Layer"/>
  <g id="_1946551692560">
   <path class="fil0" d="M1130 541l120 0c20,0 36,5 47,15 10,10 16,22 16,37 0,12 -4,23 -12,32 -5,5 -12,10 -22,14 15,3 26,9 33,18 7,9 10,20 10,33 0,11 -2,21 -7,29 -5,9 -12,16 -21,21 -5,3 -13,5 -24,6 -15,2 -24,3 -29,3l-111 0 0 -208zm65 82l28 0c10,0 17,-2 21,-5 4,-4 6,-9 6,-15 0,-7 -2,-11 -6,-15 -4,-3 -11,-5 -21,-5l-28 0 0 40zm0 82l33 0c11,0 18,-2 23,-6 5,-4 7,-10 7,-16 0,-6 -2,-11 -7,-15 -4,-4 -12,-6 -24,-6l-32 0 0 43z"/>
   <polygon id="1" class="fil0" points="1358,541 1423,541 1423,749 1358,749 "/>
   <path id="2" class="fil0" d="M1461 645c0,-34 9,-60 28,-79 19,-19 46,-28 79,-28 35,0 62,9 81,27 18,19 28,45 28,79 0,24 -4,44 -13,59 -8,16 -20,28 -35,37 -16,8 -35,13 -58,13 -23,0 -43,-4 -58,-11 -16,-8 -28,-20 -38,-36 -9,-16 -14,-36 -14,-61zm64 0c0,21 4,37 12,46 8,9 18,14 32,14 14,0 24,-5 32,-14 8,-9 11,-25 11,-48 0,-20 -4,-34 -11,-43 -8,-9 -19,-14 -33,-14 -13,0 -23,5 -31,14 -8,9 -12,24 -12,45z"/>
   <path id="3" class="fil0" d="M1794 749l0 -208 92 0c19,0 33,2 43,6 9,3 17,10 23,19 5,10 8,20 8,32 0,15 -4,27 -14,37 -10,10 -24,17 -44,19 7,4 13,7 16,11 8,7 16,16 23,28l36 56 -34 0 -28 -43c-8,-13 -14,-22 -20,-29 -5,-6 -10,-11 -14,-14 -4,-2 -8,-4 -12,-5 -3,-1 -8,-1 -16,-1l-31 0 0 92 -28 0zm28 -116l59 0c12,0 22,-1 29,-4 7,-3 13,-7 16,-12 4,-6 6,-12 6,-19 0,-10 -4,-18 -11,-24 -7,-7 -18,-10 -34,-10l-65 0 0 69z"/>
   <polygon id="4" class="fil0" points="2004,749 2004,541 2154,541 2154,565 2032,565 2032,629 2147,629 2147,654 2032,654 2032,725 2159,725 2159,749 "/>
   <path id="5" class="fil0" d="M2197 749l0 -208 41 0 49 147c5,14 8,24 10,31 3,-7 7,-18 12,-33l50 -145 37 0 0 208 -27 0 0 -174 -61 174 -25 0 -60 -177 0 177 -26 0z"/>
   <polygon id="6" class="fil0" points="2440,749 2440,541 2591,541 2591,565 2468,565 2468,629 2583,629 2583,654 2468,654 2468,725 2596,725 2596,749 "/>
   <path id="7" class="fil0" d="M2634 749l0 -208 72 0c16,0 28,1 37,3 12,3 22,8 30,15 11,9 19,21 25,36 5,14 8,30 8,49 0,16 -2,30 -5,42 -4,12 -9,22 -15,30 -5,8 -12,15 -19,19 -7,5 -15,8 -24,11 -10,2 -21,3 -34,3l-75 0zm27 -24l45 0c14,0 24,-1 32,-4 8,-3 14,-6 19,-11 6,-6 11,-15 15,-26 4,-11 6,-25 6,-40 0,-22 -4,-39 -11,-51 -7,-11 -16,-19 -26,-23 -8,-3 -19,-5 -36,-5l-44 0 0 160z"/>
   <polygon id="8" class="fil0" points="2849,749 2849,541 2876,541 2876,749 "/>
   <polygon id="9" class="fil0" points="2925,749 2925,541 3076,541 3076,565 2953,565 2953,629 3068,629 3068,654 2953,654 2953,725 3081,725 3081,749 "/>
   <path id="10" class="fil0" d="M3110 682l26 -2c1,11 4,19 8,26 5,7 12,12 21,16 10,4 20,6 32,6 11,0 20,-1 28,-4 8,-3 14,-8 18,-13 4,-6 6,-12 6,-18 0,-7 -2,-12 -6,-17 -4,-5 -10,-9 -19,-12 -5,-3 -18,-6 -37,-11 -19,-4 -32,-9 -40,-13 -10,-5 -17,-11 -22,-19 -5,-8 -7,-16 -7,-26 0,-11 3,-20 9,-29 6,-10 14,-17 26,-21 11,-5 24,-7 38,-7 15,0 29,2 41,7 12,5 21,12 27,22 6,10 10,21 10,33l-26 2c-2,-13 -6,-23 -15,-30 -8,-7 -20,-10 -36,-10 -17,0 -29,3 -36,9 -8,6 -12,14 -12,22 0,8 3,14 8,19 6,5 19,10 42,15 22,5 38,9 46,13 12,5 21,12 27,21 5,9 8,18 8,30 0,11 -3,21 -9,31 -7,10 -16,17 -27,23 -12,5 -26,8 -41,8 -18,0 -34,-3 -47,-8 -13,-6 -23,-14 -30,-25 -7,-11 -11,-24 -11,-38z"/>
   <g>
    <g>
     <path class="fil1" d="M1153 0l189 0c60,0 115,24 154,64 39,39 63,93 63,153 0,60 -24,114 -63,154 -39,39 -94,63 -154,63l-189 0 -28 0 0 -27 0 -32 0 -28 28 0 189 0c36,0 69,-14 92,-38 24,-23 38,-56 38,-92 0,-36 -14,-68 -38,-92 -23,-23 -56,-38 -92,-38l-189 0 -28 0 0 -28 0 -31 0 -28 28 0zm505 434l-31 0 -28 0 0 -27 0 -379 0 -28 28 0 31 0 28 0 0 28 0 379 0 27 -28 0zm158 -420l150 267 150 -267 8 -14 16 0 39 0 47 0 -23 41 -213 379 -24 43 -24 -43 -213 -379 -23 -41 47 0 39 0 16 0 8 14zm489 420l-32 0 -27 0 0 -27 0 -379 0 -28 27 0 32 0 28 0 0 28 0 379 0 27 -28 0zm131 -370c39,-40 93,-64 153,-64 60,0 114,24 154,64 39,39 63,93 63,153l0 190 0 27 -27 0 -32 0 -28 0 0 -27 0 -190c0,-36 -14,-68 -38,-92 -23,-23 -56,-38 -92,-38 -36,0 -68,15 -92,38 -23,24 -38,56 -38,92l0 190 0 27 -27 0 -32 0 -28 0 0 -27 0 -190c0,-60 24,-114 64,-153zm473 0c40,-40 94,-64 154,-64l189 0 28 0 0 28 0 31 0 28 -28 0 -189 0c-36,0 -69,15 -92,38 -24,24 -38,56 -38,92 0,36 14,69 38,92 23,24 56,38 92,38l189 0 28 0 0 28 0 32 0 27 -28 0 -189 0c-60,0 -114,-24 -154,-63 -39,-40 -63,-94 -63,-154 0,-60 24,-114 63,-153zm204 153c-1,0 -1,-2 -1,-3l-3 3 4 0zm-4 0l0 0 3 3c-1,0 -2,0 -3,1l0 -4 -3 3c0,-1 0,-2 -1,-3l4 0 0 0 0 0 0 0 0 0zm-36 36c-9,-9 -15,-22 -15,-36 0,-14 6,-27 15,-36 9,-9 22,-15 36,-15 14,0 27,6 36,15 10,9 15,22 15,36 0,14 -5,27 -15,36 -9,10 -22,15 -36,15 -14,0 -27,-5 -36,-15zm32 -36l0 0 0 0zm7 -3c-1,0 -2,0 -3,-1l0 4 -3 -3c1,0 3,0 3,-1l0 0 3 1zm-6 0c0,1 0,3 -1,3l1 -3zm0 6c1,0 3,0 3,1l-3 -1zm6 0c0,-1 0,-2 1,-3l-1 3z"/>
    </g>
    <circle class="fil2" cx="1277" cy="221" r="54"/>
   </g>
   <rect class="fil3" x="997" y="55" width="13.4051" height="554.461"/>
   <g id="_1946551708688">
    <path class="fil2" d="M555 359c1,5 4,9 5,13l4 7 4 4c4,-3 6,-5 10,-8 4,-4 9,-7 14,-11 7,-5 40,-33 44,-35 17,-14 34,-26 50,-40 4,-3 14,-9 16,-14l-5 -5c-2,0 -1,0 -1,-1 -11,-8 -15,-11 -30,-16 -15,-4 -36,-4 -51,0 -17,5 -24,11 -34,22 -18,17 -35,47 -26,84z"/>
    <path class="fil2" d="M682 312c-2,3 -6,5 -9,8 -9,7 -62,50 -66,51 -3,6 -27,20 -29,26 4,9 23,19 35,22 8,2 9,1 13,2 5,1 2,0 4,1l24 -2c2,-1 11,-4 14,-5 5,-2 8,-4 13,-6 2,-2 10,-6 13,-9 12,-12 21,-23 27,-39 8,-25 5,-54 -8,-71 -5,1 -6,3 -9,6 -3,2 -4,3 -7,5 -5,4 -9,8 -15,11z"/>
   </g>
   <path class="fil4" d="M649 181c-30,2 -59,7 -82,19 -24,12 -43,28 -57,47 -5,8 -10,17 -14,26 -9,20 -14,41 -14,62l0 1 0 1c0,21 5,43 14,62 4,10 9,18 14,26 14,19 33,36 57,47 23,12 52,17 82,19 49,-4 97,-30 124,-80 6,-11 10,-20 13,-29 2,-16 5,-30 6,-46 -1,-15 -4,-30 -6,-46 -3,-9 -7,-18 -13,-29 -27,-49 -75,-76 -124,-80zm251 155c1,60 -20,115 -55,159 -14,23 -48,51 -72,65 -12,7 -24,13 -37,18 -35,15 -74,22 -114,20 -33,1 -66,0 -100,0 -48,0 -96,0 -144,0 1,-16 14,-52 19,-68 11,-33 20,-48 13,-65 -15,-26 -26,-55 -31,-85l0 -1c0,-2 0,-3 -1,-5 0,-1 0,-1 0,-2 0,-1 0,-3 0,-4 -1,-1 -1,-2 -1,-2 0,-2 0,-3 0,-4 0,-1 0,-2 0,-3 0,-1 -1,-2 -1,-3 0,-2 0,-3 0,-4 0,-1 0,-2 0,-3 0,-1 0,-2 0,-3 0,-1 0,-2 0,-3 0,-1 0,-3 0,-4 0,-1 0,-2 0,-3 0,-1 0,-2 0,-3 0,-1 0,-2 0,-3 0,-1 0,-3 0,-4 0,-1 0,-2 0,-3 0,-1 0,-2 0,-3 0,-1 0,-2 0,-3 0,-1 1,-3 1,-4 0,-1 0,-2 0,-3 0,-1 0,-2 0,-3 0,-1 0,-2 1,-3 0,-1 0,-3 0,-4 0,-1 0,-1 0,-2 1,-1 1,-3 1,-5l0 -1c5,-30 16,-59 31,-85 7,-16 -2,-32 -13,-64 -5,-17 -18,-53 -19,-69 48,1 96,0 144,0 34,0 67,-1 100,0 40,-2 79,5 114,20 13,5 25,11 37,18 24,14 58,43 72,65 35,44 56,100 55,159z"/>
   <g id="_1946551692272">
    <g>
     <circle class="fil4" transform="matrix(0.0473397 0.00276887 -0.00276887 0.0473397 28.259 331.901)" r="596"/>
     <circle class="fil4" transform="matrix(0.0405769 0.00237331 -0.00237331 0.0405769 91.9118 335.624)" r="596"/>
     <circle class="fil4" transform="matrix(0.033814 0.00197776 -0.00197776 0.033814 148.064 338.909)" r="596"/>
     <circle class="fil4" transform="matrix(0.0270512 0.00158221 -0.00158221 0.0270512 195.539 341.685)" r="596"/>
     <circle class="fil4" transform="matrix(0.0202884 0.00118666 -0.00118666 0.0202884 235.809 344.041)" r="596"/>
     <circle class="fil4" transform="matrix(0.0135256 0.000791104 -0.000791104 0.0135256 267.627 345.902)" r="596"/>
    </g>
    <g>
     <circle class="fil4" transform="matrix(0.0454317 -0.0135892 0.0135892 0.0454317 44.8174 436.929)" r="596"/>
     <circle class="fil4" transform="matrix(0.0389415 -0.0116479 0.0116479 0.0389415 105.905 418.657)" r="596"/>
     <circle class="fil4" transform="matrix(0.0324512 -0.0097066 0.0097066 0.0324512 159.794 402.538)" r="596"/>
     <circle class="fil4" transform="matrix(0.025961 -0.00776528 0.00776528 0.025961 205.356 388.91)" r="596"/>
     <circle class="fil4" transform="matrix(0.0194707 -0.00582396 0.00582396 0.0194707 244.002 377.35)" r="596"/>
     <circle class="fil4" transform="matrix(0.0129805 -0.00388264 0.00388264 0.0129805 274.538 368.216)" r="596"/>
    </g>
    <g>
     <circle class="fil4" transform="matrix(0.0380441 -0.0283083 0.0283083 0.0380441 95.6692 531.315)" r="596"/>
     <circle class="fil4" transform="matrix(0.0326092 -0.0242642 0.0242642 0.0326092 146.823 493.252)" r="596"/>
     <circle class="fil4" transform="matrix(0.0271743 -0.0202202 0.0202202 0.0271743 191.949 459.674)" r="596"/>
     <circle class="fil4" transform="matrix(0.0217395 -0.0161762 0.0161762 0.0217395 230.102 431.284)" r="596"/>
     <circle class="fil4" transform="matrix(0.0163046 -0.0121321 0.0121321 0.0163046 262.465 407.204)" r="596"/>
     <circle class="fil4" transform="matrix(0.0108697 -0.00808808 0.00808808 0.0108697 288.035 388.177)" r="596"/>
    </g>
    <g>
     <circle class="fil4" transform="matrix(0.0260677 -0.0396129 0.0396129 0.0260677 175.136 602.705)" r="596"/>
     <circle class="fil4" transform="matrix(0.0223438 -0.0339539 0.0339539 0.0223438 210.187 549.442)" r="596"/>
     <circle class="fil4" transform="matrix(0.0186198 -0.0282949 0.0282949 0.0186198 241.107 502.455)" r="596"/>
     <circle class="fil4" transform="matrix(0.0148959 -0.022636 0.022636 0.0148959 267.249 462.729)" r="596"/>
     <circle class="fil4" transform="matrix(0.0111719 -0.016977 0.016977 0.0111719 289.424 429.032)" r="596"/>
     <circle class="fil4" transform="matrix(0.00744793 -0.011318 0.011318 0.00744793 306.945 402.407)" r="596"/>
    </g>
    <g>
     <circle class="fil4" transform="matrix(0.0109472 -0.0461397 0.0461397 0.0109472 274.224 643.091)" r="596"/>
     <circle class="fil4" transform="matrix(0.00938335 -0.0395483 0.0395483 0.00938335 288.944 581.052)" r="596"/>
     <circle class="fil4" transform="matrix(0.00781946 -0.0329569 0.0329569 0.00781946 301.929 526.323)" r="596"/>
     <circle class="fil4" transform="matrix(0.00625557 -0.0263655 0.0263655 0.00625557 312.908 480.052)" r="596"/>
     <circle class="fil4" transform="matrix(0.00469168 -0.0197741 0.0197741 0.00469168 322.22 440.803)" r="596"/>
     <circle class="fil4" transform="matrix(0.00312778 -0.0131828 0.0131828 0.00312778 329.578 409.791)" r="596"/>
    </g>
    <g>
     <circle class="fil4" transform="matrix(0.0435377 0.018793 0.018793 -0.0435377 49.598 225.78)" r="596"/>
     <circle class="fil4" transform="matrix(0.0373181 0.0161083 0.0161083 -0.0373181 108.139 251.049)" r="596"/>
     <circle class="fil4" transform="matrix(0.0310984 0.0134236 0.0134236 -0.0310984 159.781 273.34)" r="596"/>
     <circle class="fil4" transform="matrix(0.0248787 0.0107389 0.0107389 -0.0248787 203.443 292.187)" r="596"/>
     <circle class="fil4" transform="matrix(0.018659 0.00805414 0.00805414 -0.018659 240.479 308.174)" r="596"/>
     <circle class="fil4" transform="matrix(0.0124394 0.00536943 0.00536943 -0.0124394 269.742 320.805)" r="596"/>
    </g>
    <g>
     <circle class="fil4" transform="matrix(0.0344845 0.0325504 0.0325504 -0.0344845 106.239 133.385)" r="596"/>
     <circle class="fil4" transform="matrix(0.0295581 0.0279004 0.0279004 -0.0295581 152.606 177.152)" r="596"/>
     <circle class="fil4" transform="matrix(0.0246318 0.0232503 0.0232503 -0.0246318 193.51 215.762)" r="596"/>
     <circle class="fil4" transform="matrix(0.0197054 0.0186002 0.0186002 -0.0197054 228.093 248.405)" r="596"/>
     <circle class="fil4" transform="matrix(0.0147791 0.0139502 0.0139502 -0.0147791 257.428 276.095)" r="596"/>
     <circle class="fil4" transform="matrix(0.00985271 0.00930012 0.00930012 -0.00985271 280.606 297.973)" r="596"/>
    </g>
    <g>
     <circle class="fil4" transform="matrix(0.0212719 0.0423818 0.0423818 -0.0212719 198.408 61.0772)" r="596"/>
     <circle class="fil4" transform="matrix(0.0182331 0.0363272 0.0363272 -0.0182331 227.01 118.064)" r="596"/>
     <circle class="fil4" transform="matrix(0.0151942 0.0302727 0.0302727 -0.0151942 252.242 168.335)" r="596"/>
     <circle class="fil4" transform="matrix(0.0121554 0.0242182 0.0242182 -0.0121554 273.575 210.838)" r="596"/>
     <circle class="fil4" transform="matrix(0.00911654 0.0181636 0.0181636 -0.00911654 291.67 246.89)" r="596"/>
     <circle class="fil4" transform="matrix(0.00607769 0.0121091 0.0121091 -0.00607769 305.968 275.377)" r="596"/>
    </g>
    <g>
     <circle class="fil4" transform="matrix(0.00549365 0.0471013 0.0471013 -0.00549365 310.337 29.1982)" r="596"/>
     <circle class="fil4" transform="matrix(0.00470884 0.0403725 0.0403725 -0.00470884 317.723 92.5304)" r="596"/>
     <circle class="fil4" transform="matrix(0.00392403 0.0336438 0.0336438 -0.00392403 324.24 148.4)" r="596"/>
     <circle class="fil4" transform="matrix(0.00313923 0.026915 0.026915 -0.00313923 329.749 195.636)" r="596"/>
     <circle class="fil4" transform="matrix(0.00235442 0.0201863 0.0201863 -0.00235442 334.422 235.703)" r="596"/>
     <circle class="fil4" transform="matrix(0.00156961 0.0134575 0.0134575 -0.00156961 338.115 267.361)" r="596"/>
    </g>
   </g>
   <polygon class="fil5" points="1130,864 1130,811 1137,811 1137,864 "/>
   <polygon id="1" class="fil5" points="1210,864 1210,811 1217,811 1245,853 1245,811 1252,811 1252,864 1245,864 1217,822 1217,864 "/>
   <polygon id="2" class="fil5" points="1325,864 1325,811 1332,811 1360,853 1360,811 1367,811 1367,864 1359,864 1331,822 1331,864 "/>
   <path id="3" class="fil5" d="M1437 838c0,-9 3,-16 7,-21 5,-5 11,-7 19,-7 5,0 9,1 13,3 4,3 7,6 9,10 2,4 3,9 3,14 0,6 -1,11 -3,15 -2,4 -5,7 -9,10 -4,2 -9,3 -13,3 -5,0 -10,-1 -14,-4 -4,-2 -7,-5 -9,-10 -2,-4 -3,-8 -3,-13zm7 0c0,7 2,12 6,15 3,4 7,6 13,6 5,0 9,-2 13,-6 3,-3 5,-9 5,-16 0,-4 -1,-8 -2,-11 -2,-3 -4,-6 -7,-8 -2,-1 -6,-2 -9,-2 -5,0 -10,1 -13,5 -4,3 -6,9 -6,17z"/>
   <path id="4" class="fil5" d="M1573 864l-20 -53 7 0 14 38c1,4 2,6 3,9 1,-3 2,-6 3,-9l14 -38 8 0 -21 53 -8 0z"/>
   <path id="5" class="fil5" d="M1657 864l21 -53 8 0 21 53 -8 0 -6 -16 -22 0 -6 16 -8 0zm16 -22l18 0 -6 -15c-1,-4 -3,-8 -4,-11 0,4 -1,7 -3,10l-5 16z"/>
   <polygon id="6" class="fil5" points="1782,864 1782,817 1764,817 1764,811 1806,811 1806,817 1789,817 1789,864 "/>
   <polygon id="7" class="fil5" points="1874,864 1874,811 1913,811 1913,817 1882,817 1882,833 1911,833 1911,840 1882,840 1882,858 1914,858 1914,864 "/>
   <polygon id="8" class="fil5" points="2185,864 2185,817 2168,817 2168,811 2210,811 2210,817 2193,817 2193,864 "/>
   <path id="9" class="fil5" d="M2275 838c0,-9 2,-16 7,-21 5,-5 11,-7 18,-7 5,0 10,1 14,3 4,3 7,6 9,10 2,4 3,9 3,14 0,6 -1,11 -3,15 -3,4 -6,7 -10,10 -4,2 -8,3 -13,3 -5,0 -9,-1 -13,-4 -4,-2 -7,-5 -9,-10 -2,-4 -3,-8 -3,-13zm7 0c0,7 2,12 5,15 4,4 8,6 13,6 6,0 10,-2 13,-6 4,-3 5,-9 5,-16 0,-4 0,-8 -2,-11 -1,-3 -3,-6 -6,-8 -3,-1 -6,-2 -10,-2 -5,0 -9,1 -13,5 -3,3 -5,9 -5,17z"/>
   <path id="10" class="fil5" d="M2518 847l7 -1c0,3 1,5 2,7 1,2 3,3 5,4 3,1 5,2 8,2 3,0 5,-1 8,-2 2,0 3,-1 4,-3 1,-1 2,-3 2,-4 0,-2 -1,-4 -2,-5 -1,-1 -2,-2 -5,-3 -1,-1 -4,-1 -9,-3 -5,-1 -9,-2 -11,-3 -2,-1 -4,-3 -5,-5 -1,-2 -2,-4 -2,-7 0,-2 1,-5 2,-7 2,-3 4,-4 7,-6 3,-1 6,-1 10,-1 4,0 7,0 10,2 3,1 6,3 7,5 2,3 3,6 3,9l-7 0c0,-3 -2,-6 -4,-7 -2,-2 -5,-3 -9,-3 -4,0 -7,1 -9,2 -2,2 -3,4 -3,6 0,2 0,3 2,5 1,1 5,2 10,4 6,1 10,2 12,3 3,1 6,3 7,5 2,3 2,5 2,8 0,3 0,5 -2,8 -2,3 -4,4 -7,6 -3,1 -6,2 -10,2 -5,0 -9,-1 -12,-2 -4,-2 -6,-4 -8,-7 -2,-2 -3,-6 -3,-9z"/>
   <path id="11" class="fil5" d="M2666 811l7 0 0 30c0,6 -1,10 -2,13 -1,3 -3,6 -7,8 -3,2 -7,3 -12,3 -5,0 -9,-1 -12,-3 -3,-1 -6,-4 -7,-7 -1,-3 -2,-8 -2,-14l0 -30 7 0 0 30c0,5 0,9 1,11 1,2 3,4 5,5 2,1 4,2 7,2 6,0 9,-2 11,-4 3,-2 4,-7 4,-14l0 -30z"/>
   <path id="12" class="fil5" d="M2783 845l8 2c-2,6 -5,10 -8,13 -4,3 -9,5 -15,5 -5,0 -10,-1 -14,-4 -3,-2 -6,-5 -8,-10 -2,-4 -3,-9 -3,-14 0,-6 1,-11 4,-15 2,-4 5,-7 9,-9 4,-2 8,-3 13,-3 5,0 9,1 13,4 4,2 6,6 8,11l-7 2c-1,-4 -3,-7 -6,-9 -2,-1 -5,-2 -9,-2 -4,0 -7,1 -10,3 -3,2 -5,4 -6,8 -1,3 -1,6 -1,10 0,4 0,8 2,12 1,3 3,6 6,7 3,2 6,3 9,3 4,0 7,-1 10,-4 3,-2 5,-5 5,-10z"/>
   <path id="13" class="fil5" d="M2898 845l7 2c-1,6 -4,10 -8,13 -4,3 -8,5 -14,5 -6,0 -10,-1 -14,-4 -4,-2 -6,-5 -8,-10 -2,-4 -3,-9 -3,-14 0,-6 1,-11 3,-15 2,-4 5,-7 9,-9 4,-2 8,-3 13,-3 6,0 10,1 14,4 3,2 6,6 7,11l-7 2c-1,-4 -3,-7 -5,-9 -2,-1 -5,-2 -9,-2 -4,0 -7,1 -10,3 -3,2 -5,4 -6,8 -1,3 -2,6 -2,10 0,4 1,8 2,12 2,3 4,6 6,7 3,2 6,3 10,3 3,0 7,-1 10,-4 2,-2 4,-5 5,-10z"/>
   <polygon id="14" class="fil5" points="2975,864 2975,811 3013,811 3013,817 2982,817 2982,833 3011,833 3011,840 2982,840 2982,858 3015,858 3015,864 "/>
   <polygon id="15" class="fil5" points="3085,864 3085,811 3124,811 3124,817 3092,817 3092,833 3122,833 3122,840 3092,840 3092,858 3125,858 3125,864 "/>
   <path id="16" class="fil5" d="M3196 864l0 -53 18 0c4,0 7,0 10,0 3,1 5,2 7,4 3,3 5,6 7,9 1,4 2,8 2,13 0,4 -1,8 -2,11 0,3 -2,6 -3,8 -2,2 -3,3 -5,4 -2,2 -4,3 -6,3 -3,1 -6,1 -9,1l-19 0zm7 -6l11 0c4,0 6,-1 8,-1 2,-1 4,-2 5,-3 2,-2 3,-4 4,-7 1,-3 2,-6 2,-10 0,-6 -1,-10 -3,-13 -2,-3 -4,-5 -7,-6 -2,-1 -5,-1 -9,-1l-11 0 0 41z"/>
  </g>
 </g>
</svg>
