<?xml version="1.0" encoding="UTF-8"?>
<!DOCTYPE svg PUBLIC "-//W3C//DTD SVG 1.1//EN" "http://www.w3.org/Graphics/SVG/1.1/DTD/svg11.dtd">
<!-- Creator: CorelDRAW X7 -->
<svg xmlns="http://www.w3.org/2000/svg" xml:space="preserve" width="1.05743in" height="0.787591in" version="1.1" style="shape-rendering:geometricPrecision; text-rendering:geometricPrecision; image-rendering:optimizeQuality; fill-rule:evenodd; clip-rule:evenodd"
viewBox="0 0 65 49"
 xmlns:xlink="http://www.w3.org/1999/xlink">
 <defs>
  <style type="text/css">
   <![CDATA[
    .fil1 {fill:#05BDBD}
    .fil0 {fill:#EB9F06}
   ]]>
  </style>
 </defs>
 <g id="Layer_x0020_1">
  <metadata id="CorelCorpID_0Corel-Layer"/>
  <g id="_2272613981840">
   <g>
    <path class="fil0" d="M40 26c0,0 1,1 1,1l0 0 0 1c0,0 1,-1 1,-1 0,0 1,0 1,-1 0,0 3,-2 3,-2 1,-1 3,-2 4,-3 0,0 1,-1 1,-1l0 0c-1,0 -1,0 -1,-1 0,0 -1,0 -2,-1 -1,0 -2,0 -3,0 -2,1 -2,1 -3,2 -1,1 -2,3 -2,6z"/>
    <path class="fil0" d="M49 23c0,0 0,0 0,0 -1,1 -5,4 -5,4 0,0 -2,1 -2,2 0,0 2,1 2,1 1,0 1,0 1,0 1,1 1,0 1,1l1 -1c1,0 1,0 1,0 1,0 1,0 1,0 1,-1 1,-1 1,-1 1,-1 2,-2 2,-3 1,-2 1,-4 0,-5 -1,0 -1,0 -1,0 0,1 0,1 0,1 -1,0 -1,0 -2,1z"/>
   </g>
   <path class="fil1" d="M47 13c-2,0 -4,1 -6,1 -2,1 -3,2 -4,4 0,0 -1,1 -1,2 -1,1 -1,3 -1,4l0 0 0 0c0,2 0,3 1,5 0,1 1,1 1,2 1,1 2,2 4,3 2,1 4,1 6,2 4,-1 7,-3 9,-6 1,-1 1,-2 1,-2 0,-2 0,-3 0,-4 0,-1 0,-2 0,-3 0,-1 0,-1 -1,-2 -2,-4 -5,-6 -9,-6zm18 11c0,5 -1,9 -4,12 -1,1 -3,4 -5,5 -1,0 -2,1 -3,1 -2,1 -5,1 -8,1 -2,0 -5,0 -7,0 -4,0 -7,0 -11,0 0,-1 1,-3 2,-5 1,-2 1,-3 1,-4 -1,-2 -2,-4 -2,-7l-1 0c0,0 0,0 0,0 0,0 0,0 0,0 0,0 0,0 0,0 0,0 0,0 0,-1 0,0 0,0 0,0 0,0 0,0 0,0 0,0 0,0 0,0 0,0 0,0 0,-1 0,0 0,0 0,0 0,0 0,0 0,0 0,0 0,0 0,0 0,0 0,0 0,0 0,-1 0,-1 0,-1 0,0 0,0 0,0 0,0 0,0 0,0 0,0 0,0 0,0 0,0 0,-1 0,-1 0,0 0,0 0,0 0,0 0,0 0,0 0,0 0,0 0,0 0,0 0,0 0,-1 0,0 0,0 0,0 0,0 0,0 0,0 0,0 0,0 0,0 0,0 0,0 0,0 0,-1 0,-1 0,-1l1 0c0,-2 1,-4 2,-6 0,-1 0,-2 -1,-5 -1,-1 -2,-4 -2,-5 4,0 7,0 11,0 2,0 5,0 7,0 3,0 6,1 8,2 1,0 2,1 3,1 2,1 4,3 5,5 3,3 4,7 4,11z"/>
   <g>
    <g>
     <circle class="fil1" transform="matrix(0.0473397 0.00276887 -0.00276887 0.0473397 2.04931 24.001)" r="43"/>
     <circle class="fil1" transform="matrix(0.0405769 0.00237331 -0.00237331 0.0405769 6.66533 24.271)" r="43"/>
     <circle class="fil1" transform="matrix(0.033814 0.00197776 -0.00197776 0.033814 10.7374 24.5092)" r="43"/>
     <circle class="fil1" transform="matrix(0.0270512 0.00158221 -0.00158221 0.0270512 14.1802 24.7105)" r="43"/>
     <circle class="fil1" transform="matrix(0.0202884 0.00118666 -0.00118666 0.0202884 17.1006 24.8814)" r="43"/>
     <circle class="fil1" transform="matrix(0.0135256 0.000791104 -0.000791104 0.0135256 19.408 25.0163)" r="43"/>
    </g>
    <g>
     <circle class="fil1" transform="matrix(0.0454317 -0.0135892 0.0135892 0.0454317 3.2501 31.6175)" r="43"/>
     <circle class="fil1" transform="matrix(0.0389415 -0.0116479 0.0116479 0.0389415 7.68008 30.2924)" r="43"/>
     <circle class="fil1" transform="matrix(0.0324512 -0.0097066 0.0097066 0.0324512 11.5881 29.1235)" r="43"/>
     <circle class="fil1" transform="matrix(0.025961 -0.00776528 0.00776528 0.025961 14.8921 28.1352)" r="43"/>
     <circle class="fil1" transform="matrix(0.0194707 -0.00582396 0.00582396 0.0194707 17.6947 27.2969)" r="43"/>
     <circle class="fil1" transform="matrix(0.0129805 -0.00388264 0.00388264 0.0129805 19.9092 26.6345)" r="43"/>
    </g>
    <g>
     <circle class="fil1" transform="matrix(0.0380441 -0.0283083 0.0283083 0.0380441 6.93781 38.4623)" r="43"/>
     <circle class="fil1" transform="matrix(0.0326092 -0.0242642 0.0242642 0.0326092 10.6474 35.702)" r="43"/>
     <circle class="fil1" transform="matrix(0.0271743 -0.0202202 0.0202202 0.0271743 13.9199 33.2669)" r="43"/>
     <circle class="fil1" transform="matrix(0.0217395 -0.0161762 0.0161762 0.0217395 16.6867 31.2082)" r="43"/>
     <circle class="fil1" transform="matrix(0.0163046 -0.0121321 0.0121321 0.0163046 19.0336 29.4619)" r="43"/>
     <circle class="fil1" transform="matrix(0.0108697 -0.00808808 0.00808808 0.0108697 20.888 28.0821)" r="43"/>
    </g>
    <g>
     <circle class="fil1" transform="matrix(0.0260677 -0.0396129 0.0396129 0.0260677 12.7007 43.6394)" r="43"/>
     <circle class="fil1" transform="matrix(0.0223438 -0.0339539 0.0339539 0.0223438 15.2425 39.7768)" r="43"/>
     <circle class="fil1" transform="matrix(0.0186198 -0.0282949 0.0282949 0.0186198 17.4848 36.3693)" r="43"/>
     <circle class="fil1" transform="matrix(0.0148959 -0.022636 0.022636 0.0148959 19.3806 33.4885)" r="43"/>
     <circle class="fil1" transform="matrix(0.0111719 -0.016977 0.016977 0.0111719 20.9887 31.0448)" r="43"/>
     <circle class="fil1" transform="matrix(0.00744793 -0.011318 0.011318 0.00744793 22.2593 29.114)" r="43"/>
    </g>
    <g>
     <circle class="fil1" transform="matrix(0.0109472 -0.0461397 0.0461397 0.0109472 19.8864 46.5681)" r="43"/>
     <circle class="fil1" transform="matrix(0.00938335 -0.0395483 0.0395483 0.00938335 20.9539 42.0691)" r="43"/>
     <circle class="fil1" transform="matrix(0.00781946 -0.0329569 0.0329569 0.00781946 21.8955 38.1003)" r="43"/>
     <circle class="fil1" transform="matrix(0.00625557 -0.0263655 0.0263655 0.00625557 22.6917 34.7447)" r="43"/>
     <circle class="fil1" transform="matrix(0.00469168 -0.0197741 0.0197741 0.00469168 23.367 31.8984)" r="43"/>
     <circle class="fil1" transform="matrix(0.00312778 -0.0131828 0.0131828 0.00312778 23.9006 29.6495)" r="43"/>
    </g>
    <g>
     <circle class="fil1" transform="matrix(0.0435377 0.018793 0.018793 -0.0435377 3.59678 16.3052)" r="43"/>
     <circle class="fil1" transform="matrix(0.0373181 0.0161083 0.0161083 -0.0373181 7.84208 18.1377)" r="43"/>
     <circle class="fil1" transform="matrix(0.0310984 0.0134236 0.0134236 -0.0310984 11.5871 19.7543)" r="43"/>
     <circle class="fil1" transform="matrix(0.0248787 0.0107389 0.0107389 -0.0248787 14.7535 21.121)" r="43"/>
     <circle class="fil1" transform="matrix(0.018659 0.00805414 0.00805414 -0.018659 17.4392 22.2803)" r="43"/>
     <circle class="fil1" transform="matrix(0.0124394 0.00536943 0.00536943 -0.0124394 19.5614 23.1963)" r="43"/>
    </g>
    <g>
     <circle class="fil1" transform="matrix(0.0344845 0.0325504 0.0325504 -0.0344845 7.7043 9.60485)" r="43"/>
     <circle class="fil1" transform="matrix(0.0295581 0.0279004 0.0279004 -0.0295581 11.0668 12.7788)" r="43"/>
     <circle class="fil1" transform="matrix(0.0246318 0.0232503 0.0232503 -0.0246318 14.0331 15.5787)" r="43"/>
     <circle class="fil1" transform="matrix(0.0197054 0.0186002 0.0186002 -0.0197054 16.5411 17.946)" r="43"/>
     <circle class="fil1" transform="matrix(0.0147791 0.0139502 0.0139502 -0.0147791 18.6684 19.954)" r="43"/>
     <circle class="fil1" transform="matrix(0.00985271 0.00930012 0.00930012 -0.00985271 20.3492 21.5406)" r="43"/>
    </g>
    <g>
     <circle class="fil1" transform="matrix(0.0212719 0.0423818 0.0423818 -0.0212719 14.3883 4.3612)" r="43"/>
     <circle class="fil1" transform="matrix(0.0182331 0.0363272 0.0363272 -0.0182331 16.4625 8.49378)" r="43"/>
     <circle class="fil1" transform="matrix(0.0151942 0.0302727 0.0302727 -0.0151942 18.2923 12.1394)" r="43"/>
     <circle class="fil1" transform="matrix(0.0121554 0.0242182 0.0242182 -0.0121554 19.8393 15.2217)" r="43"/>
     <circle class="fil1" transform="matrix(0.00911654 0.0181636 0.0181636 -0.00911654 21.1516 17.8361)" r="43"/>
     <circle class="fil1" transform="matrix(0.00607769 0.0121091 0.0121091 -0.00607769 22.1884 19.9019)" r="43"/>
    </g>
    <g>
     <circle class="fil1" transform="matrix(0.00549365 0.0471013 0.0471013 -0.00549365 22.5052 2.04937)" r="43"/>
     <circle class="fil1" transform="matrix(0.00470884 0.0403725 0.0403725 -0.00470884 23.0409 6.64214)" r="43"/>
     <circle class="fil1" transform="matrix(0.00392403 0.0336438 0.0336438 -0.00392403 23.5135 10.6937)" r="43"/>
     <circle class="fil1" transform="matrix(0.00313923 0.026915 0.026915 -0.00313923 23.913 14.1192)" r="43"/>
     <circle class="fil1" transform="matrix(0.00235442 0.0201863 0.0201863 -0.00235442 24.2519 17.0248)" r="43"/>
     <circle class="fil1" transform="matrix(0.00156961 0.0134575 0.0134575 -0.00156961 24.5197 19.3207)" r="43"/>
    </g>
   </g>
  </g>
 </g>
</svg>
