<svg xmlns="http://www.w3.org/2000/svg" width="309" height="309" viewBox="0 0 309 309">
  <g id="Layer_x0020_1" transform="translate(0 -0.095)">
    <g id="_2272591676992">
      <rect id="Rectangle_3" data-name="Rectangle 3" width="309" height="309" transform="translate(0 0.095)" fill="none"/>
      <g id="Group_1" data-name="Group 1" transform="translate(55.034 12.928)">
        <path id="Path_6" data-name="Path 6" d="M443.825,318.412c-12.046-8.227-12.34-14.4-20.861-5.583-6.17,6.17-6.17,7.345.294,14.1l17.335,19.98c4.995,4.113,9.7-3.82,11.753-5.876l4.113-4.407,2.057-2.057,15.866-17.629c1.763-2.351,7.345-6.464,7.345-9.7,0-2.938-1.469-3.82-3.232-5.583a62.321,62.321,0,0,1-4.407-4.407c-4.7-3.526-8.521,2.057-11.459,4.113Z" transform="translate(-350.482 -222.04)" fill="#eb9f06" fill-rule="evenodd"/>
        <path id="Path_7" data-name="Path 7" d="M275.069,73.969c42.016-7.933,74.923,22.33,81.975,56.413,8.521,42.9-22.624,76.98-56.413,83.738-42.9,8.521-77.274-22.33-83.738-57C208.372,112.459,239.811,80.433,275.069,73.969ZM264.785,60.454c-11.165.294-24.387-8.521-30.557-1.175-4.995,6.17-2.938,20.567-9.99,24.974-7.639,4.7-20.861,2.644-24.387,10.284-2.644,5.876,4.113,19.1,3.526,29.382-35.258,24.387-1.763,29.382,0,43.485,1.175,9.4-8.521,21.155-1.763,28.206,5.876,6.17,19.98,3.82,25.268,11.165,5.583,7.933,1.469,17.335,10.871,24.093,10.284,3.232,19.1-6.758,29.088-2.644,6.17,2.938,12.928,15.866,19.98,15.866s13.809-12.928,20.273-15.572c9.7-4.407,18.51,5.583,29.088,2.351,9.7-6.758,4.995-17.629,11.459-24.974,5.289-6.17,20.567-4.7,25.268-11.165,5.582-7.345-4.407-18.8-2.351-28.5,2.938-12.34,34.377-18.51-.294-42.6-1.175-21.742,16.748-29.088-9.99-36.139C349.7,84.841,347.642,85.722,344.7,76.32c-2.644-8.814-2.644-14.1-7.052-19.392-12.634-1.763-16.454,3.82-28.794,3.526C302.394,56.046,294.167,44,286.821,44,279.77,44,271.837,56.046,264.785,60.454Z" transform="translate(-187.308 -44)" fill="#05bdbd" fill-rule="evenodd"/>
        <path id="Path_8" data-name="Path 8" d="M275.062,780.609c4.995-4.113,18.8-33.789,22.036-39.665,4.407-8.521,17.629-32.026,19.392-39.078-17.629,5.583-23.505-14.1-29.382-15.866-16.454,1.763-17.335,8.814-32.614.881L221,752.99l41.722-12.34Z" transform="translate(-211.101 -497.37)" fill="#05bdbd" fill-rule="evenodd"/>
        <path id="Path_9" data-name="Path 9" d="M558.012,686.984c-16.747,33.789-22.33,26.737-11.459,47.6,4.113,7.933,21.742,43.779,24.974,46.717l12.634-40.253c9.99.882,31.732,9.4,42.6,12.34l-33.5-65.815C576.228,696.092,575.347,686.69,558.012,686.984Z" transform="translate(-437.05 -498.06)" fill="#05bdbd" fill-rule="evenodd"/>
        <path id="Path_10" data-name="Path 10" d="M367.3,173.3c32.907-3.82,59.645,21.155,63.464,49.949,4.407,34.083-20.861,61.7-49.949,65.227-33.789,4.407-62-21.155-65.227-50.536C311.766,202.684,336.741,176.828,367.3,173.3Zm-56.413,69.928c5.583,30.557,35.846,56.707,73.454,50.536,30.851-5.289,58.176-36.139,51.712-74.042-5.582-31.145-35.846-58.47-74.629-51.418C330.57,173.89,303.245,204.447,310.885,243.231Z" transform="translate(-273.661 -130.993)" fill="#05bdbd" fill-rule="evenodd"/>
      </g>
    </g>
  </g>
</svg>
